<svg xmlns="http://www.w3.org/2000/svg" viewBox="0 0 1200 800" width="1200" height="800" role="img"><rect width="1200" height="800" fill="#EDF0F4"/><rect x="420" y="140" width="360" height="280" fill="#FFFFFF" stroke="#B7C2CE" stroke-width="6"/><rect x="597" y="140" width="6" height="280" fill="#B7C2CE"/><rect x="420" y="277" width="360" height="6" fill="#B7C2CE"/><rect x="440" y="460" width="16" height="120" rx="6" fill="#FFFFFF" stroke="#B7C2CE" stroke-width="4"/><rect x="466" y="460" width="16" height="120" rx="6" fill="#FFFFFF" stroke="#B7C2CE" stroke-width="4"/><rect x="492" y="460" width="16" height="120" rx="6" fill="#FFFFFF" stroke="#B7C2CE" stroke-width="4"/><rect x="518" y="460" width="16" height="120" rx="6" fill="#FFFFFF" stroke="#B7C2CE" stroke-width="4"/><rect x="544" y="460" width="16" height="120" rx="6" fill="#FFFFFF" stroke="#B7C2CE" stroke-width="4"/><rect x="570" y="460" width="16" height="120" rx="6" fill="#FFFFFF" stroke="#B7C2CE" stroke-width="4"/><rect x="596" y="460" width="16" height="120" rx="6" fill="#FFFFFF" stroke="#B7C2CE" stroke-width="4"/><rect x="0" y="620" width="1200" height="180" fill="#DCE2E9"/><rect x="0" y="620" width="1200" height="4" fill="#B7C2CE"/><rect x="120" y="560" width="220" height="60" fill="#C9B79C" opacity=".6"/></svg>
