<svg xmlns="http://www.w3.org/2000/svg" viewBox="0 0 1200 800" width="1200" height="800" role="img"><rect width="1200" height="800" fill="#EDF0F4"/><rect x="120" y="160" width="58" height="58" rx="3" fill="#FFFFFF"/><rect x="120" y="224" width="58" height="58" rx="3" fill="#FFFFFF"/><rect x="120" y="288" width="58" height="58" rx="3" fill="#FFFFFF"/><rect x="120" y="352" width="58" height="58" rx="3" fill="#FFFFFF"/><rect x="120" y="416" width="58" height="58" rx="3" fill="#FFFFFF"/><rect x="120" y="480" width="58" height="58" rx="3" fill="#FFFFFF"/><rect x="184" y="160" width="58" height="58" rx="3" fill="#FFFFFF"/><rect x="184" y="224" width="58" height="58" rx="3" fill="#FFFFFF"/><rect x="184" y="288" width="58" height="58" rx="3" fill="#FFFFFF"/><rect x="184" y="352" width="58" height="58" rx="3" fill="#FFFFFF"/><rect x="184" y="416" width="58" height="58" rx="3" fill="#FFFFFF"/><rect x="184" y="480" width="58" height="58" rx="3" fill="#FFFFFF"/><rect x="248" y="160" width="58" height="58" rx="3" fill="#FFFFFF"/><rect x="248" y="224" width="58" height="58" rx="3" fill="#FFFFFF"/><rect x="248" y="288" width="58" height="58" rx="3" fill="#FFFFFF"/><rect x="248" y="352" width="58" height="58" rx="3" fill="#FFFFFF"/><rect x="248" y="416" width="58" height="58" rx="3" fill="#FFFFFF"/><rect x="248" y="480" width="58" height="58" rx="3" fill="#FFFFFF"/><rect x="312" y="160" width="58" height="58" rx="3" fill="#FFFFFF"/><rect x="312" y="224" width="58" height="58" rx="3" fill="#FFFFFF"/><rect x="312" y="288" width="58" height="58" rx="3" fill="#FFFFFF"/><rect x="312" y="352" width="58" height="58" rx="3" fill="#FFFFFF"/><rect x="312" y="416" width="58" height="58" rx="3" fill="#FFFFFF"/><rect x="312" y="480" width="58" height="58" rx="3" fill="#FFFFFF"/><rect x="376" y="160" width="58" height="58" rx="3" fill="#FFFFFF"/><rect x="376" y="224" width="58" height="58" rx="3" fill="#FFFFFF"/><rect x="376" y="288" width="58" height="58" rx="3" fill="#FFFFFF"/><rect x="376" y="352" width="58" height="58" rx="3" fill="#FFFFFF"/><rect x="376" y="416" width="58" height="58" rx="3" fill="#FFFFFF"/><rect x="376" y="480" width="58" height="58" rx="3" fill="#FFFFFF"/><rect x="440" y="160" width="58" height="58" rx="3" fill="#FFFFFF"/><rect x="440" y="224" width="58" height="58" rx="3" fill="#FFFFFF"/><rect x="440" y="288" width="58" height="58" rx="3" fill="#FFFFFF"/><rect x="440" y="352" width="58" height="58" rx="3" fill="#FFFFFF"/><rect x="440" y="416" width="58" height="58" rx="3" fill="#FFFFFF"/><rect x="440" y="480" width="58" height="58" rx="3" fill="#FFFFFF"/><rect x="504" y="160" width="58" height="58" rx="3" fill="#FFFFFF"/><rect x="504" y="224" width="58" height="58" rx="3" fill="#FFFFFF"/><rect x="504" y="288" width="58" height="58" rx="3" fill="#FFFFFF"/><rect x="504" y="352" width="58" height="58" rx="3" fill="#FFFFFF"/><rect x="504" y="416" width="58" height="58" rx="3" fill="#FFFFFF"/><rect x="504" y="480" width="58" height="58" rx="3" fill="#FFFFFF"/><rect x="568" y="160" width="58" height="58" rx="3" fill="#FFFFFF"/><rect x="568" y="224" width="58" height="58" rx="3" fill="#FFFFFF"/><rect x="568" y="288" width="58" height="58" rx="3" fill="#FFFFFF"/><rect x="568" y="352" width="58" height="58" rx="3" fill="#FFFFFF"/><rect x="568" y="416" width="58" height="58" rx="3" fill="#FFFFFF"/><rect x="568" y="480" width="58" height="58" rx="3" fill="#FFFFFF"/><rect x="632" y="160" width="58" height="58" rx="3" fill="#FFFFFF"/><rect x="632" y="224" width="58" height="58" rx="3" fill="#FFFFFF"/><rect x="632" y="288" width="58" height="58" rx="3" fill="#FFFFFF"/><rect x="632" y="352" width="58" height="58" rx="3" fill="#FFFFFF"/><rect x="632" y="416" width="58" height="58" rx="3" fill="#FFFFFF"/><rect x="632" y="480" width="58" height="58" rx="3" fill="#FFFFFF"/><rect x="700" y="160" width="58" height="58" rx="3" fill="#F7F0E0"/><rect x="700" y="224" width="58" height="58" rx="3" fill="#F7F0E0"/><rect x="700" y="288" width="58" height="58" rx="3" fill="#F7F0E0"/><rect x="764" y="160" width="58" height="58" rx="3" fill="#F7F0E0"/><rect x="764" y="224" width="58" height="58" rx="3" fill="#F7F0E0"/><rect x="764" y="288" width="58" height="58" rx="3" fill="#F7F0E0"/><rect x="828" y="160" width="58" height="58" rx="3" fill="#F7F0E0"/><rect x="828" y="224" width="58" height="58" rx="3" fill="#F7F0E0"/><rect x="828" y="288" width="58" height="58" rx="3" fill="#F7F0E0"/><rect x="0" y="640" width="1200" height="160" fill="#DCE2E9"/><rect x="0" y="640" width="1200" height="4" fill="#B7C2CE"/><path d="M980 540 L1058 540 L1046 610 L992 610 Z" fill="#4A3AB8"/><rect x="978" y="530" width="82" height="12" rx="4" fill="#6C5CE7"/><rect x="120" y="600" width="560" height="40" fill="#CBD3DC"/></svg>
