<svg class="icon-sprite" aria-hidden="true" focusable="false" xmlns="http://www.w3.org/2000/svg">
  <defs>
    <!-- Контурная геометрия: прямые и прямые углы. Тот же чертёжный рисунок,
         из которого выведен акцент — берлинская лазурь. -->
    <symbol id="i-mark" viewBox="0 0 20 20"><path d="M4 3h7l5 5v4l-5 5H4z"/><path d="M8 7h4"/></symbol>
    <symbol id="i-object" viewBox="0 0 20 20"><path d="M3 3h14v14H3z"/><path d="M3 11h6V3"/></symbol>
    <symbol id="i-estimate" viewBox="0 0 20 20"><path d="M3 5h9M3 10h9M3 15h9"/><path d="M15 5h2M15 10h2M15 15h2"/></symbol>
    <symbol id="i-acceptance" viewBox="0 0 20 20"><path d="M3 3h14v14H3z"/><path d="M6.5 10.5 9 13l4.5-4.5"/></symbol>
    <symbol id="i-expense" viewBox="0 0 20 20"><path d="M5 3h10v14l-2.5-1.5L10 17l-2.5-1.5L5 17z"/><path d="M8 7h4M8 10h4"/></symbol>
    <symbol id="i-schedule" viewBox="0 0 20 20"><path d="M3 5h8M6 10h9M3 15h6"/></symbol>
    <symbol id="i-back" viewBox="0 0 20 20"><path d="M12 4 6 10l6 6"/></symbol>
    <symbol id="i-crumb" viewBox="0 0 20 20"><path d="m8 5 5 5-5 5"/></symbol>
    <symbol id="i-chevron" viewBox="0 0 20 20"><path d="m5 8 5 5 5-5"/></symbol>
    <symbol id="i-copy" viewBox="0 0 20 20"><path d="M7 7h10v10H7z"/><path d="M4 13V4h9"/></symbol>
    <symbol id="i-bell" viewBox="0 0 20 20"><path d="M5 14V9a5 5 0 0 1 10 0v5"/><path d="M3 14h14"/><path d="M8 17h4"/></symbol>
    <symbol id="i-alert" viewBox="0 0 20 20"><path d="M10 3 3 16h14z"/><path d="M10 8v4M10 14h.01"/></symbol>
    <symbol id="i-calendar" viewBox="0 0 20 20"><path d="M3 5h14v12H3z"/><path d="M3 9h14M7 3v4M13 3v4"/></symbol>
    <symbol id="i-avatar" viewBox="0 0 20 20"><path d="M10 4a3 3 0 1 1 0 6 3 3 0 0 1 0-6z"/><path d="M4 17v-1a6 6 0 0 1 12 0v1"/></symbol>
  </defs>
</svg>
